<svg version="1.1" viewBox="0 0 24 24" xmlns="http://www.w3.org/2000/svg"><path d="m12 2c-5.5206 0-10 4.4794-10 10s4.4794 10 10 10c5.5098 0 10-4.4794 10-10s-4.4902-10-10-10zm6.6052 4.6095c1.1931 1.4534 1.9089 3.308 1.9306 5.3145-0.282-0.05424-3.102-0.62906-5.9436-0.27116-0.06508-0.14098-0.11932-0.29284-0.18438-0.44468-0.17354-0.41214-0.36878-0.83514-0.564-1.2364 3.1453-1.2798 4.577-3.1236 4.7614-3.3623zm-6.6052-3.1345c2.1692 0 4.154 0.81345 5.6616 2.1475-0.15184 0.21692-1.4425 1.9414-4.4794 3.0803-1.3991-2.5705-2.9501-4.6746-3.1887-5 0.6399-0.15184 1.3124-0.22777 2.0065-0.22777zm-3.6334 0.80261c0.22776 0.30368 1.7462 2.4187 3.167 4.9349-3.9913 1.0629-7.5163 1.0412-7.8959 1.0412 0.55314-2.6464 2.3427-4.8482 4.7289-5.9761zm-4.9132 7.7332v-0.2603c0.36876 0.01084 4.5119 0.06508 8.7744-1.2147 0.24946 0.47722 0.47722 0.96528 0.69414 1.4534-0.10846 0.03254-0.22776 0.06508-0.33622 0.0976-4.4035 1.4208-6.7462 5.3037-6.9414 5.6291-1.3558-1.5076-2.1909-3.5141-2.1909-5.705zm8.5466 8.5358c-1.974 0-3.7961-0.67246-5.2386-1.8004 0.15186-0.31452 1.8872-3.6551 6.7028-5.3362 0.0217-0.01084 0.03254-0.01084 0.05424-0.0217 1.2039 3.1128 1.692 5.7267 1.8221 6.4751-1.0304 0.44468-2.1583 0.6833-3.3406 0.6833zm4.7614-1.4642c-0.08678-0.52062-0.5423-3.0152-1.6594-6.0846 2.679-0.423 5.0217 0.27114 5.3145 0.36876-0.36876 2.3753-1.7354 4.4252-3.6551 5.7158z"/></svg>
