<svg version="1.1" viewBox="0 0 24 24" xmlns="http://www.w3.org/2000/svg"><path d="m7.8585 2.0699c-1.064 0.0502-1.7906 0.22-2.4258 0.4696-0.65741 0.2562-1.2146 0.60001-1.769 1.1564s-0.89581 1.114-1.1502 1.7724c-0.2462 0.63661-0.413 1.3638-0.46 2.4284-0.047 1.0646-0.057401 1.4068-0.052201 4.1224 0.0052 2.7156 0.0172 3.056 0.068801 4.1228 0.0508 1.0638 0.22 1.7902 0.4696 2.4256 0.2566 0.65741 0.60001 1.2144 1.1566 1.769 0.55661 0.55461 1.1138 0.89521 1.7738 1.15 0.63601 0.2458 1.3634 0.4134 2.4278 0.46 1.0644 0.0466 1.407 0.0574 4.1218 0.0522 2.7148-0.0052 3.0566-0.0172 4.1232-0.0678 1.0666-0.0506 1.7892-0.221 2.4248-0.4694 0.65741-0.2572 1.2148-0.60001 1.769-1.1568s0.89541-1.1148 1.1496-1.7736c0.2464-0.63601 0.4138-1.3634 0.46-2.427 0.0466-1.0674 0.0576-1.4082 0.0524-4.1234-0.0052-2.7152-0.0174-3.0556-0.068-4.122s-0.22-1.7906-0.4694-2.4264c-0.257-0.65741-0.60001-1.214-1.1564-1.769-0.55641-0.55501-1.1148-0.89601-1.7734-1.1496-0.63641-0.2462-1.3634-0.414-2.4278-0.46-1.0644-0.046001-1.407-0.057801-4.1228-0.052601-2.7158 0.0052-3.0558 0.0168-4.1224 0.068801m0.1168 18.078c-0.97501-0.0424-1.5044-0.2044-1.8572-0.34-0.4672-0.18-0.80001-0.3976-1.1516-0.74581-0.3516-0.3482-0.56761-0.68221-0.75001-1.1484-0.137-0.3528-0.302-0.88161-0.3476-1.8566-0.0496-1.0538-0.060001-1.3702-0.065801-4.04-0.0058-2.6698 0.0044001-2.9858 0.0506-4.04 0.0416-0.97421 0.2046-1.5042 0.34-1.8568 0.18-0.4678 0.3968-0.80001 0.74581-1.1514 0.349-0.3514 0.68201-0.56781 1.1486-0.75021 0.3524-0.1376 0.88121-0.3012 1.8558-0.3476 1.0546-0.05 1.3706-0.060001 4.04-0.065801 2.6694-0.0058 2.9862 0.0042 4.0412 0.050601 0.97421 0.0424 1.5044 0.2038 1.8566 0.34 0.4674 0.18 0.80001 0.3962 1.1514 0.74581 0.3514 0.3496 0.56801 0.68141 0.75041 1.149 0.1378 0.3514 0.3014 0.88001 0.3474 1.8552 0.0502 1.0546 0.0616 1.3708 0.0664 4.04 0.0048 2.6692-0.0046 2.9862-0.0508 4.04-0.0426 0.97501-0.2042 1.5046-0.34 1.8578-0.18 0.467-0.397 0.80001-0.74621 1.1512-0.3492 0.3512-0.68181 0.56761-1.1486 0.75001-0.352 0.1374-0.88141 0.3014-1.8552 0.3478-1.0546 0.0496-1.3706 0.06-4.041 0.0658-2.6704 0.0058-2.9854-5e-3 -4.04-0.0506m8.1521-13.492a1.2 1.2 0 1 0 1.1976-1.202 1.2 1.2 0 0 0-1.1976 1.202m-9.2621 5.3547c0.0056 2.836 2.3088 5.1299 5.1443 5.1245 2.8354-0.0054 5.1309-2.3084 5.1255-5.1445-0.0054-2.836-2.3092-5.1305-5.1451-5.1249-2.8358 0.0056-5.1301 2.3092-5.1247 5.1449m1.8012-0.0036a3.3334 3.3334 0 1 1 3.34 3.3268 3.333 3.333 0 0 1-3.34-3.3268" /></svg>
