<svg version="1.1" viewBox="0 0 24 24" xmlns="http://www.w3.org/2000/svg">
 <path d="m4 2c-1.0927 0-2 0.90728-2 2 0 9.9293 8.0707 18 18 18 1.0927 0 2-0.90728 2-2v-3.5c0-1.0927-0.90728-2-2-2-1.1433 0-2.236-0.1826-3.2559-0.51953-0.0045-0.0013-0.0091-0.0026-0.01367-0.0039-0.68501-0.21529-1.4864-0.04486-2.0273 0.49609l-1.6055 1.6055c-2.156-1.2384-3.9374-3.0198-5.1758-5.1758l1.6055-1.6055c0.54096-0.54096 0.71138-1.3423 0.49609-2.0273-0.0013-0.00457-0.0026-0.00912-0.0039-0.013672-0.33694-1.0199-0.51954-2.1125-0.51954-3.2559 0-1.0927-0.90728-2-2-2z"/>
</svg>
