<svg version="1.1" viewBox="0 0 24 24" xmlns="http://www.w3.org/2000/svg"><path d="m8.9194 16.534c0.61413 0.23308 1.3031 0.25157 1.9761 0.16984l0.04095 5.0468c0.0019 0.22081 0.26555 0.33116 0.42329 0.17769l3.6496-3.6254c0.0453-0.04531 0.07209-0.10554 0.07417-0.16982l0.0957-2.7349c4.4622-4.0464 6.3461-8.6221 6.8196-13.123 0.015072-0.15746-0.11682-0.28992-0.27309-0.27487-4.4738 0.41338-9.0405 2.2439-13.119 6.682l-2.7134 0.059868c-0.065129 9.608e-4 -0.12684 0.027134-0.17271 0.073624l-3.6445 3.7534c-0.15626 0.15601-0.05133 0.4241 0.16874 0.42995l5.0051-0.01609c-0.10455 0.7816-0.077951 1.5885 0.26237 2.2784 0.30207 0.57467 0.77706 0.96559 1.4074 1.2721zm5.8511-9.6978c0.09946 0.00129 0.19812 0.057945 0.23214 0.17277l0.33944 1.178 1.2816-0.24443c0.23391-0.044731 0.38755 0.24056 0.22238 0.41424l-0.84173 0.88546 0.8505 0.99734c0.15588 0.18244-0.01146 0.45924-0.24383 0.40149l-1.1811-0.29253-0.43111 1.2418c-0.0785 0.22755-0.40076 0.21869-0.4672-0.01266l-0.3394-1.178-1.2826 0.24443c-0.23391 0.04473-0.38756-0.24056-0.22238-0.41424l0.84173-0.88546-0.85051-0.99734c-0.1559-0.18242 0.01337-0.4592 0.24481-0.40149l1.1811 0.29253 0.43111-1.2418c0.03566-0.1073 0.13571-0.16131 0.23505-0.15999z"/></svg>
