<svg version="1.1" viewBox="0 0 24 24" xmlns="http://www.w3.org/2000/svg"><path d="m19.952 7.9832c0.01219 0.17359 0.01219 0.34718 0.01219 0.52237-2e-6 5.3381-4.1276 11.494-11.675 11.494v-0.0032c-2.2295 0.0032-4.4128-0.62556-6.2897-1.8111 0.32419 0.0384 0.65001 0.0576 0.97664 0.0584 1.8477 0.0016 3.6425-0.60876 5.0961-1.7327-1.7558-0.0328-3.2956-1.1599-3.8334-2.8054 0.61507 0.11679 1.2488 0.09279 1.8525-0.06959-1.9143-0.38078-3.2915-2.0367-3.2915-3.9598v-0.051197c0.57038 0.31278 1.209 0.48637 1.8623 0.50557-1.803-1.1863-2.3587-3.5478-1.27-5.3941 2.0833 2.5238 5.157 4.0581 8.4566 4.2205-0.33069-1.4031 0.12106-2.8734 1.1871-3.8598 1.6527-1.5295 4.2519-1.4511 5.8054 0.17519 0.91895-0.17839 1.7997-0.51037 2.6057-0.98074-0.30632 0.93514-0.94739 1.7295-1.8038 2.2343 0.81332-0.094394 1.608-0.30878 2.3563-0.63596-0.55088 0.81275-1.2448 1.5207-2.0475 2.0927z"/></svg>
