<svg version="1.1" viewBox="0 0 24 24" xmlns="http://www.w3.org/2000/svg"><path d="m19.086 4.9063c-1.8798-1.8732-4.38-2.9053-7.0439-2.9063-5.4892 0-9.9565 4.4455-9.9584 9.9097-9.55e-4 1.7468 0.45791 3.4518 1.3293 4.9544l-1.4129 5.1359 5.2791-1.3781c1.4544 0.7898 3.0922 1.2056 4.7586 1.2061h0.0043c5.4882 0 9.9561-4.4459 9.958-9.9102 9.45e-4 -2.6482-1.0338-5.1378-2.9141-7.011zm-7.0439 15.248h-0.0033c-1.485-4.43e-4 -2.9418-0.39775-4.2128-1.1481l-0.3023-0.17864-3.1328 0.81778 0.83608-3.0398-0.19673-0.31172c-0.82844-1.3115-1.2663-2.8274-1.2653-4.3836 0.00191-4.5415 3.7148-8.2366 8.2806-8.2366 2.2107 9.51e-4 4.2888 0.85868 5.8516 2.4159 1.5628 1.5567 2.4228 3.6267 2.4218 5.8273-0.0019 4.5419-3.7148 8.2371-8.2768 8.2371zm4.5399-6.169c-0.24878-0.12401-1.4721-0.72279-1.7003-0.80545-0.22822-0.08271-0.39389-0.12401-0.55961 0.12401-0.16567 0.24808-0.64267 0.80595-0.78783 0.97082-0.14517 0.16537-0.29033 0.18583-0.53911 0.06176-0.24872-0.12401-1.0504-0.38536-2.0011-1.2289-0.73961-0.65672-1.2391-1.4674-1.3842-1.7154-0.14517-0.24803-0.015278-0.38205 0.10883-0.50512 0.11172-0.11119 0.24878-0.28938 0.37339-0.43385 0.12467-0.14447 0.16572-0.24803 0.24878-0.41295 0.08311-0.16537 0.04156-0.30978-0.0205-0.43385-0.06211-0.12402-0.55961-1.3429-0.76733-1.8385-0.202-0.48279-0.40728-0.41721-0.55961-0.42529-0.14517-0.00713-0.31083-0.00855-0.477-0.00855-0.16617 0-0.4355 0.061774-0.66372 0.30983-0.22822 0.24803-0.87094 0.84725-0.87094 2.0657 0 1.2184 0.89149 2.3964 1.0161 2.5618s1.7547 2.6663 4.2506 3.7393c0.59356 0.25516 1.0572 0.4077 1.4186 0.52176 0.59594 0.18865 1.1383 0.16205 1.5671 0.09836 0.478-0.07127 1.4721-0.59922 1.6793-1.1775 0.20722-0.57832 0.20722-1.0744 0.14517-1.1775-0.06206-0.10311-0.22822-0.16537-0.477-0.28938z"/></svg>
